<svg xmlns="http://www.w3.org/2000/svg" xmlns:xlink="http://www.w3.org/1999/xlink" viewBox="0 0 1842.74 310.15"><defs><style>.cls-1,.cls-4{fill:none;}.cls-2{fill:#fff;}.cls-3{clip-path:url(#clip-path);}.cls-4{stroke:#0881c7;stroke-miterlimit:10;stroke-width:12px;}</style><clipPath id="clip-path"><rect class="cls-1" x="131.66" y="5.89" width="176.57" height="292.48"/></clipPath></defs><title>logo_light</title><g id="Layer_2" data-name="Layer 2"><g id="Master"><g id="main_white"><g id="title"><path class="cls-2" d="M378.9,210.22V186.7a24.77,24.77,0,0,0,13.31,4q12.29,0,12.28-13.14V97.14h26.63v81.09q0,16.77-8.91,26.11t-24.81,9.34Q385.48,213.68,378.9,210.22Z"/><path class="cls-2" d="M528.29,213.5l-7.09-23.86H480.4l-7.09,23.86H445.47L484.37,97h33.55l38.9,116.54Zm-41.5-45.3h28l-1.21-4.15q-5-16.94-8.22-28.87t-3.89-15.39l-.69-3.46q-1.38,9.51-12.8,47.72Z"/><path class="cls-2" d="M639.3,102.15v24.9a57.11,57.11,0,0,0-29-8.13q-6.75,0-10.29,2.77a8.61,8.61,0,0,0-3.54,7.09q0,4.32,4.32,7.69a63,63,0,0,0,13,7.18q5.35,2.41,8.9,4.23a74.41,74.41,0,0,1,8.13,5,32,32,0,0,1,7.26,6.74,33.75,33.75,0,0,1,4.58,8.73,32.39,32.39,0,0,1,1.91,11.24q0,15.73-11.59,25.51t-30.78,9.77q-20.58,0-33.54-7.26V180.82q15.74,11.42,33.54,11.42a15.5,15.5,0,0,0,10-3.2,10.78,10.78,0,0,0,3.46-11.67,7.6,7.6,0,0,0-1.9-2.94,25.56,25.56,0,0,0-2.68-2.34,32,32,0,0,0-3.81-2.25L603,167.68q-1.74-.85-5.1-2.42t-5.45-2.42a54.66,54.66,0,0,1-18.07-12.79q-6.82-7.61-6.83-20.23,0-15,11.07-24.3t30.6-9.25Q626.67,96.27,639.3,102.15Z"/><path class="cls-2" d="M656.59,154.89q0-26.8,15.47-43.32T713.3,95.06q25.94,0,41.33,16.43T770,154.89q0,26.81-15.48,43.31T713.3,214.71q-25.93,0-41.32-16.42T656.59,154.89Zm36.14-26q-7.62,9.6-7.61,26t7.61,26q7.6,9.6,20.57,9.6t20.58-9.6q7.61-9.6,7.61-26t-7.61-26q-7.61-9.59-20.58-9.59T692.73,128.86Z"/><path class="cls-2" d="M788.17,213.5V97h29.22l27.15,48.24q5.72,10.22,9.94,19.11a131.93,131.93,0,0,1,5.45,12.54l1.38,3.8q-1.72-12.79-1.72-35.45V97h26.62V213.5H857l-27.84-48.24q-5.53-9.33-9.77-18.41t-5.79-13.4l-1.38-4.33a222.25,222.25,0,0,1,2.59,36.14V213.5Z"/><path class="cls-2" d="M951.92,213.5V97h26.63V213.5Zm59-58.27,41.33,58.27h-33.38l-39.07-57.92L1017.45,97h31.64Z"/><path class="cls-2" d="M1142,213.5l-7.09-23.86h-40.81L1087,213.5h-27.84L1098,97h33.54l38.91,116.54Zm-41.5-45.3h28l-1.21-4.15q-5-16.94-8.22-28.87t-3.89-15.39l-.69-3.46q-1.38,9.51-12.79,47.72Z"/><path class="cls-2" d="M1245.69,213.5,1220.45,173h-8.13V213.5h-26.63V97H1226q19.53,0,31.38,10.38t11.85,27q0,24.9-21.27,34.41l29.56,44.78Zm-33.37-94.92v32.85h12.62q17.3,0,17.29-17,0-7.42-4.49-11.67t-12.28-4.23Z"/><path class="cls-2" d="M1318.48,190.16h43.06V213.5h-69.68V97h26.62Z"/><path class="cls-2" d="M1451.8,213.5l-7.09-23.86H1403.9l-7.09,23.86H1369L1407.88,97h33.54l38.91,116.54Zm-41.5-45.3h28l-1.21-4.15q-5-16.94-8.21-28.87T1425,119.79l-.7-3.46q-1.38,9.51-12.79,47.72Z"/><path class="cls-2" d="M1581.13,97,1541.88,213.5h-29.39L1473.75,97h28.71l14,46.51q3.81,12.47,6.57,23.95t3.64,16.69l.86,5.36q2.76-18,11.24-46l14-46.51Z"/><path class="cls-2" d="M1597.39,213.5V97H1624V213.5Z"/><path class="cls-2" d="M1748.68,144v58.79q-16.61,12.1-41.84,12.11-28,0-45.48-16.08t-17.46-43.75q0-27.32,18.24-43.75t46.25-16.42q19.71,0,34.07,7.26v26.63q-16.61-9.51-34.07-9.51-16.42,0-26.11,9.77t-9.68,26q0,16.42,9.51,26.11t25.94,9.68a49.69,49.69,0,0,0,14.69-2.24v-22H1703.9V144Z"/><path class="cls-2" d="M1797.09,192.24h45.65V213.5h-72.45V97h71.76v21.27h-45v26.46h40.12v21.09h-40.12Z"/></g><g id="icon_1"><g id="icon"><g class="cls-3"><path class="cls-2" d="M64.81,286.65V24.28h60V286.65ZM197.55,155.47l57.57,81.17-24.29,22.83L204.4,269.85l-76.92-113.6L204,36.89l25,17,22,20Z"/></g><path class="cls-2" d="M56,232.89c23,5,37.63-7.48,37.63-27.2V43.89l27.37-11,32.43-7,.15,181.35q0,37.77-20,58.79c-3.13,3.27-11.45,12-15.48,13.92C110.44,283.59,45.85,230.68,56,232.89Z"/></g><circle class="cls-4" cx="155.08" cy="155.08" r="149.08"/><circle class="cls-4" cx="154.83" cy="154.83" r="128.95"/></g></g></g></g></svg>