<svg id="relations" xmlns="http://www.w3.org/2000/svg" viewBox="0 0 943.23 489.14"><defs><style>.cls-1,.cls-2,.cls-3,.cls-4,.cls-5,.cls-6{fill:none;}.cls-1{stroke:lime;}.cls-1,.cls-2,.cls-3,.cls-4,.cls-5,.cls-6,.cls-7,.cls-8{stroke-miterlimit:10;}.cls-2{stroke:#f0f;}.cls-3{stroke:#f7931e;}.cls-4{stroke:aqua;}.cls-5{stroke:red;}.cls-6{stroke:#ff0;}.cls-7{fill:#7da5ff;}.cls-7,.cls-8{stroke:#7da5ff;}.cls-8{fill:#fff;}.cls-9{font-size:12px;font-family:Calibri;}.cls-10{letter-spacing:-1px;}</style></defs><title>erd</title><line class="cls-1" x1="527.29" y1="37.49" x2="473.55" y2="37.49"/><line class="cls-1" x1="422.29" y1="110.4" x2="473.55" y2="110.4"/><line class="cls-1" x1="473.55" y1="37.49" x2="473.55" y2="110.4"/><line class="cls-2" x1="166.88" y1="32.9" x2="220.21" y2="32.9"/><line class="cls-2" x1="276.55" y1="81.89" x2="220.21" y2="81.89"/><line class="cls-2" x1="220.21" y1="32.9" x2="220.21" y2="81.89"/><line class="cls-2" x1="273.21" y1="222.14" x2="220.21" y2="222.14"/><line class="cls-2" x1="220.21" y1="222.14" x2="220.21" y2="81.89"/><line class="cls-2" x1="535.71" y1="205.69" x2="473.55" y2="205.69"/><line class="cls-2" x1="220.21" y1="139.23" x2="473.55" y2="139.23"/><line class="cls-2" x1="473.55" y1="205.69" x2="473.55" y2="139.23"/><line class="cls-3" x1="163.71" y1="304.48" x2="230.21" y2="304.48"/><line class="cls-3" x1="276.55" y1="205.69" x2="230.21" y2="205.69"/><line class="cls-3" x1="230.21" y1="304.48" x2="230.21" y2="205.69"/><line class="cls-4" x1="276.55" y1="237.56" x2="241.46" y2="237.56"/><line class="cls-4" x1="241.46" y1="237.56" x2="241.46" y2="333.85"/><line class="cls-5" x1="524.88" y1="324.48" x2="469.55" y2="324.48"/><line class="cls-5" x1="418.88" y1="391.48" x2="469.55" y2="391.48"/><line class="cls-5" x1="469.55" y1="324.48" x2="469.55" y2="391.48"/><line class="cls-1" x1="524.88" y1="189.11" x2="497.21" y2="189.11"/><line class="cls-1" x1="497.21" y1="37.49" x2="497.21" y2="189.11"/><line class="cls-2" x1="535.71" y1="68.68" x2="452.21" y2="68.68"/><line class="cls-2" x1="452.21" y1="139.23" x2="452.21" y2="68.68"/><line class="cls-6" x1="777.55" y1="37.49" x2="728.21" y2="37.49"/><line class="cls-6" x1="777.55" y1="234.56" x2="728.21" y2="234.56"/><line class="cls-6" x1="728.21" y1="37.49" x2="728.21" y2="234.56"/><line class="cls-4" x1="265.88" y1="333.85" x2="158.21" y2="333.85"/><g id="contact"><g id="box"><rect class="cls-7" x="760.92" y="283.21" width="181.82" height="45.33"/><rect class="cls-8" x="760.92" y="303.21" width="181.82" height="83.58"/></g><text class="cls-9" transform="translate(899.83 319.47)">i<tspan x="2.75" y="0">n</tspan><tspan x="8.95" y="0">t (11)</tspan><tspan x="-23.34" y="14.4">v</tspan><tspan x="-18.1" y="14.4">a</tspan><tspan x="-12.35" y="14.4">r</tspan><tspan x="-8.34" y="14.4">char (50)</tspan><tspan x="-29.43" y="28.8">v</tspan><tspan x="-24.18" y="28.8">a</tspan><tspan x="-18.43" y="28.8">r</tspan><tspan x="-14.43" y="28.8">char (255)</tspan><tspan x="16.19" y="43.2">t</tspan><tspan x="20.08" y="43.2">e</tspan><tspan x="25.87" y="43.2">x</tspan><tspan x="31.1" y="43.2">t</tspan><tspan x="-17.19" y="57.6">time</tspan><tspan x="5.05" y="57.6">s</tspan><tspan x="9.61" y="57.6">t</tspan><tspan x="13.48" y="57.6">amp</tspan></text><text class="cls-9" transform="translate(770.46 319.47)">id<tspan x="0" y="14.4">name</tspan><tspan x="0" y="28.8">email</tspan><tspan x="0" y="43.2">messa</tspan><tspan x="30.69" y="43.2">g</tspan><tspan x="36.24" y="43.2">e</tspan><tspan x="0" y="57.6">send_d</tspan><tspan x="35.55" y="57.6">a</tspan><tspan x="41.19" y="57.6">t</tspan><tspan x="45.08" y="57.6">e</tspan></text><text class="cls-9" transform="translate(833.01 297.04)">Co<tspan x="12.73" y="0">n</tspan><tspan x="18.92" y="0">t</tspan><tspan x="22.79" y="0">act</tspan></text></g><g id="news"><g id="box-2" data-name="box"><rect class="cls-7" x="253.14" y="4.77" width="181.82" height="45.33"/><rect class="cls-8" x="253.14" y="24.77" width="181.82" height="96.25"/></g><text class="cls-9" transform="translate(392.05 41.04)">i<tspan x="2.75" y="0">n</tspan><tspan x="8.95" y="0">t (11)</tspan><tspan x="-29.43" y="14.4">v</tspan><tspan x="-24.18" y="14.4">a</tspan><tspan x="-18.43" y="14.4">r</tspan><tspan x="-14.43" y="14.4">char (255)</tspan><tspan x="16.19" y="28.8">t</tspan><tspan x="20.08" y="28.8">e</tspan><tspan x="25.87" y="28.8">x</tspan><tspan x="31.1" y="28.8">t</tspan><tspan x="0" y="43.2">i</tspan><tspan x="2.75" y="43.2">n</tspan><tspan x="8.95" y="43.2">t (11)</tspan><tspan x="-17.19" y="57.6">time</tspan><tspan x="5.05" y="57.6">s</tspan><tspan x="9.61" y="57.6">t</tspan><tspan x="13.48" y="57.6">amp</tspan><tspan x="0" y="72">i</tspan><tspan x="2.75" y="72">n</tspan><tspan x="8.95" y="72">t (10)</tspan></text><text class="cls-9" transform="translate(262.69 41.04)">id<tspan x="0" y="14.4">title</tspan><tspan x="0" y="28.8">c</tspan><tspan x="4.97" y="28.8">o</tspan><tspan x="11.3" y="28.8">n</tspan><tspan x="17.5" y="28.8">t</tspan><tspan x="21.39" y="28.8">e</tspan><tspan x="27.36" y="28.8">n</tspan><tspan x="33.55" y="28.8">t</tspan><tspan x="0" y="43.2">author_id</tspan><tspan x="0" y="57.6">publish_d</tspan><tspan x="47.7" y="57.6">a</tspan><tspan x="53.34" y="57.6">t</tspan><tspan x="57.23" y="57.6">e</tspan><tspan x="0" y="72">league_id</tspan></text><text class="cls-9" transform="translate(330.64 18.61)">N<tspan x="7.75" y="0">e</tspan><tspan x="13.66" y="0">w</tspan><tspan x="22.13" y="0">s</tspan></text></g><g id="tracks"><g id="box-3" data-name="box"><rect class="cls-7" x="760.92" y="7.89" width="181.82" height="45.33"/><rect class="cls-8" x="760.92" y="27.89" width="181.82" height="81.58"/></g><text class="cls-9" transform="translate(905.91 44.16)">i<tspan x="2.75" y="0">n</tspan><tspan x="8.95" y="0">t (3)</tspan><tspan x="-29.43" y="14.4">v</tspan><tspan x="-24.18" y="14.4">a</tspan><tspan x="-18.43" y="14.4">r</tspan><tspan x="-14.43" y="14.4">char (50)</tspan><tspan x="-34.3" y="28.8">decimal (4,2)</tspan><tspan x="-29.43" y="43.2">v</tspan><tspan x="-24.18" y="43.2">a</tspan><tspan x="-18.43" y="43.2">r</tspan><tspan x="-14.43" y="43.2">char (50)</tspan><tspan x="-29.43" y="57.6">v</tspan><tspan x="-24.18" y="57.6">a</tspan><tspan x="-18.43" y="57.6">r</tspan><tspan x="-14.43" y="57.6">char (50)</tspan></text><text class="cls-9" transform="translate(770.46 44.16)">id<tspan x="0" y="14.4">name</tspan><tspan x="0" y="28.8">len</tspan><tspan x="15.03" y="28.8">g</tspan><tspan x="20.5" y="28.8">th</tspan><tspan x="0" y="43.2">city</tspan><tspan x="0" y="57.6">s</tspan><tspan x="4.56" y="57.6">t</tspan><tspan x="8.43" y="57.6">a</tspan><tspan x="14.07" y="57.6">t</tspan><tspan x="17.96" y="57.6">e</tspan></text><text class="cls-9" transform="translate(836.88 21.72)">T<tspan x="5.1" y="0">r</tspan><tspan x="9.04" y="0">ac</tspan><tspan x="19.86" y="0">k</tspan><tspan x="25.21" y="0">s</tspan></text></g><g id="schedule"><g id="box-4" data-name="box"><rect class="cls-7" x="760.92" y="143.23" width="181.82" height="45.33"/><rect class="cls-8" x="760.92" y="163.23" width="181.82" height="83.58"/></g><text class="cls-9" transform="translate(905.91 179.5)">i<tspan x="2.75" y="0">n</tspan><tspan x="8.95" y="0">t (3)</tspan><tspan x="-14.94" y="14.4">d</tspan><tspan x="-8.64" y="14.4">a</tspan><tspan x="-3" y="14.4">t</tspan><tspan x="0.89" y="14.4">e</tspan><tspan x="6.8" y="14.4">time</tspan><tspan x="-29.43" y="28.8">v</tspan><tspan x="-24.18" y="28.8">a</tspan><tspan x="-18.43" y="28.8">r</tspan><tspan x="-14.43" y="28.8">char (50)</tspan><tspan x="0" y="43.2">i</tspan><tspan x="2.75" y="43.2">n</tspan><tspan x="8.95" y="43.2">t (5)</tspan><tspan x="0" y="57.6">i</tspan><tspan x="2.75" y="57.6">n</tspan><tspan x="8.95" y="57.6">t (3)</tspan></text><text class="cls-9" transform="translate(770.46 179.5)">id<tspan x="0" y="14.4">d</tspan><tspan x="6.3" y="14.4">a</tspan><tspan x="11.94" y="14.4">t</tspan><tspan x="15.83" y="14.4">e</tspan><tspan x="0" y="28.8">r</tspan><tspan x="3.94" y="28.8">ace</tspan><tspan x="0" y="43.2">la</tspan><tspan x="8.5" y="43.2">p</tspan><tspan x="14.75" y="43.2">s</tspan><tspan x="0" y="57.6">t</tspan><tspan x="4.02" y="57.6">r</tspan><tspan x="7.96" y="57.6">ack_id</tspan></text><text class="cls-9" transform="translate(829.73 157.07)">Schedule</text></g><g id="entries"><g id="box-5" data-name="box"><rect class="cls-7" x="253.14" y="160.08" width="181.82" height="45.33"/><rect class="cls-8" x="253.14" y="180.08" width="181.82" height="84.12"/></g><text class="cls-9" transform="translate(398.13 196.34)">i<tspan x="2.75" y="0">n</tspan><tspan x="8.95" y="0">t (5)</tspan><tspan x="-6.08" y="14.4">i</tspan><tspan x="-3.33" y="14.4">n</tspan><tspan x="2.87" y="14.4">t (10)</tspan><tspan x="-6.08" y="28.8">i</tspan><tspan x="-3.33" y="28.8">n</tspan><tspan x="2.87" y="28.8">t (10)</tspan><tspan x="0" y="43.2">i</tspan><tspan x="2.75" y="43.2">n</tspan><tspan x="8.95" y="43.2">t (3)</tspan><tspan x="0" y="57.6">i</tspan><tspan x="2.75" y="57.6">n</tspan><tspan x="8.95" y="57.6">t (3)</tspan></text><text class="cls-9" transform="translate(262.69 196.34)">id<tspan x="0" y="14.4">r</tspan><tspan x="3.94" y="14.4">ace_id</tspan><tspan x="0" y="28.8">t</tspan><tspan x="3.89" y="28.8">eam_id</tspan><tspan x="0" y="43.2">dri</tspan><tspan x="13.24" y="43.2">v</tspan><tspan x="18.54" y="43.2">er_id</tspan><tspan x="0" y="57.6">la</tspan><tspan x="8.5" y="57.6">p</tspan><tspan x="14.75" y="57.6">s</tspan></text><text class="cls-9" transform="translate(327.22 173.91)">E<tspan x="5.86" y="0">n</tspan><tspan x="12.05" y="0">tries</tspan></text></g><g id="results"><g id="box-6" data-name="box"><rect class="cls-7" x="0.5" y="256.81" width="181.82" height="45.33"/><rect class="cls-8" x="0.5" y="276.81" width="181.82" height="110.25"/></g><text class="cls-9" transform="translate(145.49 293.08)">i<tspan x="2.75" y="0">n</tspan><tspan x="8.95" y="0">t (5)</tspan><tspan x="-6.08" y="14.4">i</tspan><tspan x="-3.33" y="14.4">n</tspan><tspan x="2.87" y="14.4">t (10)</tspan><tspan x="-6.08" y="28.8">i</tspan><tspan x="-3.33" y="28.8">n</tspan><tspan x="2.87" y="28.8">t (10)</tspan><tspan x="0" y="43.2">i</tspan><tspan x="2.75" y="43.2">n</tspan><tspan x="8.95" y="43.2">t (3)</tspan><tspan x="0" y="57.6">i</tspan><tspan x="2.75" y="57.6">n</tspan><tspan x="8.95" y="57.6">t (4)</tspan><tspan x="0" y="72">i</tspan><tspan x="2.75" y="72">n</tspan><tspan x="8.95" y="72">t (4)</tspan><tspan x="0" y="86.4">i</tspan><tspan x="2.75" y="86.4">n</tspan><tspan x="8.95" y="86.4">t (2)</tspan></text><text class="cls-9" transform="translate(10.05 293.08)">id<tspan x="0" y="14.4">r</tspan><tspan x="3.94" y="14.4">ace_id</tspan><tspan x="0" y="28.8">poi</tspan><tspan x="15.39" y="28.8">n</tspan><tspan x="21.58" y="28.8">ts</tspan><tspan x="0" y="43.2">dri</tspan><tspan x="13.24" y="43.2">v</tspan><tspan x="18.54" y="43.2">er_id</tspan><tspan x="0" y="57.6">la</tspan><tspan x="8.5" y="57.6">p</tspan><tspan x="14.75" y="57.6">s</tspan><tspan x="0" y="72">la</tspan><tspan x="8.5" y="72">p</tspan><tspan x="14.75" y="72">s_led</tspan><tspan x="0" y="86.4">finish</tspan></text><text class="cls-9" transform="translate(74.04 270.64)">R<tspan x="6.3" y="0">esults</tspan></text></g><g id="league_members"><g id="box-7" data-name="box"><rect class="cls-7" x="510.14" y="143.78" width="181.82" height="45.33"/><rect class="cls-8" x="510.14" y="163.78" width="181.82" height="83.83"/></g><text class="cls-9" transform="translate(649.05 180.04)">i<tspan x="2.75" y="0">n</tspan><tspan x="8.95" y="0">t (10)</tspan><tspan x="0" y="14.4">i</tspan><tspan x="2.75" y="14.4">n</tspan><tspan x="8.95" y="14.4">t (10)</tspan><tspan x="0" y="28.8">i</tspan><tspan x="2.75" y="28.8">n</tspan><tspan x="8.95" y="28.8">t (11)</tspan><tspan x="-23.34" y="43.2">v</tspan><tspan x="-18.1" y="43.2">a</tspan><tspan x="-12.35" y="43.2">r</tspan><tspan x="-8.34" y="43.2">char (20)</tspan><tspan x="0" y="57.6">i</tspan><tspan x="2.75" y="57.6">n</tspan><tspan x="8.95" y="57.6">t (11)</tspan></text><text class="cls-9" transform="translate(519.68 180.04)">id<tspan x="0" y="14.4">league_id</tspan><tspan x="0" y="28.8">member_id</tspan><tspan x="0" y="43.2">t</tspan><tspan x="3.89" y="43.2">eam_name</tspan><tspan x="0" y="57.6">league_admin</tspan></text><text class="cls-9" transform="translate(557.33 157.61)">League_Membe<tspan x="78.76" y="0">r</tspan><tspan x="82.73" y="0">s</tspan></text></g><g id="leagues"><g id="box-8" data-name="box"><rect class="cls-7" x="510.14" y="5.17" width="181.82" height="45.33"/><rect class="cls-8" x="510.14" y="25.17" width="181.82" height="83.83"/></g><text class="cls-9" transform="translate(649.05 41.44)">i<tspan x="2.75" y="0">n</tspan><tspan x="8.95" y="0">t (10)</tspan><tspan x="-23.34" y="14.4">v</tspan><tspan x="-18.1" y="14.4">a</tspan><tspan x="-12.35" y="14.4">r</tspan><tspan x="-8.34" y="14.4">char (50)</tspan><tspan x="0" y="28.8">i</tspan><tspan x="2.75" y="28.8">n</tspan><tspan x="8.95" y="28.8">t (11)</tspan><tspan x="-23.34" y="43.2">v</tspan><tspan x="-18.1" y="43.2">a</tspan><tspan x="-12.35" y="43.2">r</tspan><tspan x="-8.34" y="43.2">char (10)</tspan><tspan x="-29.43" y="57.6">v</tspan><tspan x="-24.18" y="57.6">a</tspan><tspan x="-18.43" y="57.6">r</tspan><tspan x="-14.43" y="57.6">char (255)</tspan></text><text class="cls-9" transform="translate(519.68 41.44)">leagueID<tspan x="0" y="14.4">name</tspan><tspan x="0" y="28.8">c</tspan><tspan x="4.97" y="28.8">ommissioner_id</tspan><tspan x="0" y="43.2">type</tspan><tspan x="0" y="57.6">pas</tspan><tspan x="16.75" y="57.6">s</tspan><tspan x="21.38" y="57.6">w</tspan><tspan x="29.85" y="57.6">o</tspan><tspan x="36.18" y="57.6">r</tspan><tspan x="40.2" y="57.6">d</tspan></text><text class="cls-9" transform="translate(581.36 19.01)">Leagues</text></g><g id="owners"><g id="box-9" data-name="box"><rect class="cls-7" x="510.14" y="290.64" width="181.82" height="42.23"/><rect class="cls-8" x="510.14" y="310.64" width="181.82" height="80.83"/></g><text class="cls-9" transform="translate(655.13 326.91)">i<tspan x="2.75" y="0">n</tspan><tspan x="8.95" y="0">t (3)</tspan><tspan x="-29.43" y="14.4">v</tspan><tspan x="-24.18" y="14.4">a</tspan><tspan x="-18.43" y="14.4">r</tspan><tspan x="-14.43" y="14.4">char (50)</tspan><tspan x="-29.43" y="28.8">v</tspan><tspan x="-24.18" y="28.8">a</tspan><tspan x="-18.43" y="28.8">r</tspan><tspan x="-14.43" y="28.8">char (25)</tspan><tspan x="-29.43" y="43.2">v</tspan><tspan x="-24.18" y="43.2">a</tspan><tspan x="-18.43" y="43.2">r</tspan><tspan x="-14.43" y="43.2">char (25)</tspan><tspan x="-29.43" y="57.6">v</tspan><tspan x="-24.18" y="57.6">a</tspan><tspan x="-18.43" y="57.6">r</tspan><tspan x="-14.43" y="57.6">char (25)</tspan></text><text class="cls-9" transform="translate(519.68 326.91)">id<tspan x="0" y="14.4">name</tspan><tspan x="0" y="28.8">ma</tspan><tspan x="15.33" y="28.8">k</tspan><tspan x="20.4" y="28.8">e</tspan><tspan x="0" y="43.2">city</tspan><tspan x="0" y="57.6">s</tspan><tspan x="4.56" y="57.6">t</tspan><tspan x="8.43" y="57.6">a</tspan><tspan x="14.07" y="57.6">t</tspan><tspan x="17.96" y="57.6">e</tspan></text><text class="cls-9" transform="translate(582.31 304.48)">Owne<tspan x="28.8" y="0">r</tspan><tspan x="32.78" y="0">s</tspan></text></g><g id="drivers"><g id="box-10" data-name="box"><rect class="cls-7" x="253.14" y="300.64" width="181.82" height="42.23"/><rect class="cls-8" x="253.14" y="320.64" width="181.82" height="168"/></g><text class="cls-9" transform="translate(398.14 336.91)">i<tspan x="2.75" y="0">n</tspan><tspan x="8.95" y="0">t (3)</tspan><tspan x="-29.43" y="14.4">v</tspan><tspan x="-24.18" y="14.4">a</tspan><tspan x="-18.43" y="14.4">r</tspan><tspan x="-14.43" y="14.4">char (25)</tspan><tspan x="-29.43" y="28.8">v</tspan><tspan x="-24.18" y="28.8">a</tspan><tspan x="-18.43" y="28.8">r</tspan><tspan x="-14.43" y="28.8">char (25)</tspan><tspan x="0" y="43.2">i</tspan><tspan x="2.75" y="43.2">n</tspan><tspan x="8.95" y="43.2">t (3)</tspan><tspan x="0" y="57.6">i</tspan><tspan x="2.75" y="57.6">n</tspan><tspan x="8.95" y="57.6">t (3)</tspan><tspan x="-23.34" y="72">v</tspan><tspan x="-18.1" y="72">a</tspan><tspan x="-12.35" y="72">r</tspan><tspan x="-8.34" y="72">char (2)</tspan><tspan x="0" y="86.4">i</tspan><tspan x="2.75" y="86.4">n</tspan><tspan x="8.95" y="86.4">t (3)</tspan><tspan x="0" y="100.8">i</tspan><tspan x="2.75" y="100.8">n</tspan><tspan x="8.95" y="100.8">t (1)</tspan><tspan x="0" y="115.2">i</tspan><tspan x="2.75" y="115.2">n</tspan><tspan x="8.95" y="115.2">t (1)</tspan><tspan x="0" y="129.6">i</tspan><tspan x="2.75" y="129.6">n</tspan><tspan x="8.95" y="129.6">t (1)</tspan><tspan x="0" y="144">i</tspan><tspan x="2.75" y="144">n</tspan><tspan x="8.95" y="144">t (3)</tspan></text><text class="cls-9" transform="translate(262.69 336.91)">id<tspan x="0" y="14.4">f_name</tspan><tspan x="0" y="28.8">l_name</tspan><tspan x="0" y="43.2">number</tspan><tspan x="0" y="57.6">o</tspan><tspan x="6.28" y="57.6">wner_id</tspan><tspan x="0" y="72">class</tspan><tspan x="0" y="86.4">r</tspan><tspan x="4.03" y="86.4">esou</tspan><tspan x="27.32" y="86.4">r</tspan><tspan x="31.33" y="86.4">ces</tspan><tspan x="0" y="100.8">acti</tspan><tspan x="17.51" y="100.8">v</tspan><tspan x="22.81" y="100.8">e_a</tspan><tspan x="0" y="115.2">acti</tspan><tspan x="17.51" y="115.2">v</tspan><tspan x="22.81" y="115.2">e_b</tspan><tspan x="0" y="129.6">acti</tspan><tspan x="17.51" y="129.6">v</tspan><tspan x="22.81" y="129.6">e_c</tspan><tspan x="0" y="144">penalty</tspan></text><text class="cls-9" transform="translate(326.92 314.48)">Dri<tspan x="14.32" y="0">v</tspan><tspan x="19.62" y="0">e</tspan><tspan x="25.59" y="0">r</tspan><tspan x="29.57" y="0">s</tspan></text></g><g id="members"><g id="box-11" data-name="box"><rect class="cls-7" x="6.18" y="0.5" width="181.82" height="45.33"/><rect class="cls-8" x="6.18" y="20.5" width="181.82" height="181.82"/></g><text class="cls-9" transform="translate(145.09 36.77)">i<tspan x="2.75" y="0">n</tspan><tspan x="8.95" y="0">t (11)</tspan><tspan x="-29.43" y="14.4">v</tspan><tspan x="-24.18" y="14.4">a</tspan><tspan x="-18.43" y="14.4">r</tspan><tspan x="-14.43" y="14.4">char (255)</tspan><tspan x="-29.43" y="28.8">v</tspan><tspan x="-24.18" y="28.8">a</tspan><tspan x="-18.43" y="28.8">r</tspan><tspan x="-14.43" y="28.8">char (255)</tspan><tspan x="-29.43" y="43.2">v</tspan><tspan x="-24.18" y="43.2">a</tspan><tspan x="-18.43" y="43.2">r</tspan><tspan x="-14.43" y="43.2">char (255)</tspan><tspan x="-29.43" y="57.6">v</tspan><tspan x="-24.18" y="57.6">a</tspan><tspan x="-18.43" y="57.6">r</tspan><tspan x="-14.43" y="57.6">char (255)</tspan><tspan x="-29.43" y="72">v</tspan><tspan x="-24.18" y="72">a</tspan><tspan x="-18.43" y="72">r</tspan><tspan x="-14.43" y="72">char (255)</tspan><tspan x="-17.26" y="86.4">v</tspan><tspan x="-12.02" y="86.4">a</tspan><tspan x="-6.27" y="86.4">r</tspan><tspan x="-2.26" y="86.4">char (3)</tspan><tspan x="6.08" y="100.8">i</tspan><tspan x="8.84" y="100.8">n</tspan><tspan x="15.03" y="100.8">t (3)</tspan><tspan x="6.08" y="115.2">i</tspan><tspan x="8.84" y="115.2">n</tspan><tspan x="15.03" y="115.2">t (3)</tspan><tspan x="6.08" y="129.6">i</tspan><tspan x="8.84" y="129.6">n</tspan><tspan x="15.03" y="129.6">t (1)</tspan><tspan x="-23.34" y="144">v</tspan><tspan x="-18.1" y="144">a</tspan><tspan x="-12.35" y="144">r</tspan><tspan x="-8.34" y="144">char (50)</tspan><tspan x="-23.34" y="158.4">v</tspan><tspan x="-18.1" y="158.4">a</tspan><tspan x="-12.35" y="158.4">r</tspan><tspan x="-8.34" y="158.4">char (50)</tspan></text><text class="cls-9" transform="translate(15.73 36.77)">memberID<tspan x="0" y="14.4">username</tspan><tspan x="0" y="28.8">pas</tspan><tspan x="16.75" y="28.8">s</tspan><tspan x="21.38" y="28.8">w</tspan><tspan x="29.85" y="28.8">o</tspan><tspan x="36.18" y="28.8">r</tspan><tspan x="40.2" y="28.8">d</tspan><tspan x="0" y="43.2">email</tspan><tspan x="0" y="57.6">acti</tspan><tspan x="17.51" y="57.6">v</tspan><tspan x="22.81" y="57.6">e</tspan><tspan x="0" y="72">r</tspan><tspan x="4.03" y="72">es</tspan><tspan x="14.69" y="72">e</tspan><tspan x="20.6" y="72">t</tspan><tspan class="cls-10" x="24.62" y="72">T</tspan><tspan x="29.4" y="72">o</tspan><tspan x="35.72" y="72">k</tspan><tspan x="40.79" y="72">en</tspan><tspan x="0" y="86.4">r</tspan><tspan x="4.03" y="86.4">es</tspan><tspan x="14.69" y="86.4">e</tspan><tspan x="20.6" y="86.4">tCompl</tspan><tspan x="55.99" y="86.4">e</tspan><tspan x="61.89" y="86.4">t</tspan><tspan x="65.78" y="86.4">e</tspan><tspan x="0" y="100.8">r</tspan><tspan x="4.03" y="100.8">esou</tspan><tspan x="27.32" y="100.8">r</tspan><tspan x="31.33" y="100.8">ces</tspan><tspan x="0" y="115.2">p</tspan><tspan x="6.3" y="115.2">r</tspan><tspan x="10.33" y="115.2">e</tspan><tspan x="16.24" y="115.2">v_</tspan><tspan x="27.64" y="115.2">r</tspan><tspan x="31.66" y="115.2">esou</tspan><tspan x="54.96" y="115.2">r</tspan><tspan x="58.97" y="115.2">ces</tspan><tspan x="0" y="129.6">admin</tspan><tspan x="0" y="144">fname</tspan><tspan x="0" y="158.4">lname</tspan></text><text class="cls-9" transform="translate(73.71 14.33)">Membe<tspan x="38.09" y="0">r</tspan><tspan x="42.07" y="0">s</tspan></text></g></svg>