<svg id="Layer_1" data-name="Layer 1" xmlns="http://www.w3.org/2000/svg" viewBox="0 0 570.61 152.47"><defs><style>.cls-1{fill:#fff;}.cls-2{fill:none;}</style></defs><title>sc</title><g id="Full_outlines"><path class="cls-1" d="M447.18,436.4a83.3,83.3,0,0,1-2.18,8.5,38.06,38.06,0,0,1-4.42,9.32,19.85,19.85,0,0,1-8,6.79q-5.33,2.65-15.52,2.65a75.26,75.26,0,0,1-8.93-.45,17.6,17.6,0,0,1-5.92-1.62,7,7,0,0,1-3.23-3.2,11.91,11.91,0,0,1-1-5.17,28.66,28.66,0,0,1,.3-3.83q.3-2.2,1-5.44t2-7.74q1.2-4.5,3-10.71,2.25-7.56,3.9-12.24a66.11,66.11,0,0,1,3.07-7.51,24.63,24.63,0,0,1,2.63-4.32,26.67,26.67,0,0,1,2.55-2.75,17.2,17.2,0,0,1,7.73-4.27,53.31,53.31,0,0,1,13-1.21,49.18,49.18,0,0,1,11.55,1,8.86,8.86,0,0,1,5.25,3.15,6.4,6.4,0,0,1,1.27,2.61,14.46,14.46,0,0,1,.38,3.42,38.79,38.79,0,0,1-1.8,10.44L452,419.3h-15.9a61.49,61.49,0,0,0,2-6.3,23.56,23.56,0,0,0,.83-5.94,2.58,2.58,0,0,0-.9-2.21q-.9-.68-4.05-.68a11.89,11.89,0,0,0-3.9.5,5.65,5.65,0,0,0-2.4,1.75q-.6.9-1.2,2a30.12,30.12,0,0,0-1.42,3.29q-.83,2.16-2,5.8T420.33,427q-1.65,5.4-2.7,9T416,442q-.6,2.43-.82,3.87a15.81,15.81,0,0,0-.23,2.34,3.44,3.44,0,0,0,1,2.88q1,.81,4.5.81,4.35,0,6-2.52a12.44,12.44,0,0,0,1.05-1.93q.45-1,1-2.52t1.2-3.55q.6-2.07,1.5-4.95Z" transform="translate(-397.98 -311.2)"/><path class="cls-1" d="M494,458.09a16.79,16.79,0,0,1-7.87,4.37,54.44,54.44,0,0,1-13,1.21,64.89,64.89,0,0,1-8.77-.5,16.4,16.4,0,0,1-5.7-1.71,7.33,7.33,0,0,1-3.15-3.24,11.91,11.91,0,0,1-1-5.17,26.33,26.33,0,0,1,.3-3.65A54.25,54.25,0,0,1,456,444q.82-3.28,2.1-8t3.23-11.25q1.95-6.66,3.38-11a59.26,59.26,0,0,1,2.77-7.11,30.28,30.28,0,0,1,2.63-4.55,26.67,26.67,0,0,1,2.93-3.37,15.84,15.84,0,0,1,7.72-4.36,55.27,55.27,0,0,1,13.13-1.21,63.59,63.59,0,0,1,8.63.49,17.28,17.28,0,0,1,5.78,1.71,7.21,7.21,0,0,1,3.22,3.29,12,12,0,0,1,1,5.13,25.64,25.64,0,0,1-.3,3.6q-.3,2.07-1,5.08t-1.8,7.16q-1.12,4.14-2.78,9.81-2.25,7.65-3.9,12.46t-3.07,7.92a27.34,27.34,0,0,1-2.78,4.9A33.27,33.27,0,0,1,494,458.09Zm-11.1-8.46q.6-.9,1.2-2a29.82,29.82,0,0,0,1.43-3.33q.82-2.2,2-6t3-10q1.5-5.4,2.55-9t1.58-5.85q.52-2.29.75-3.6a13,13,0,0,0,.23-2.12,3.45,3.45,0,0,0-.9-2.79q-.9-.72-4.05-.72a11.89,11.89,0,0,0-3.9.5,5.65,5.65,0,0,0-2.4,1.75q-.6.9-1.2,2a27.27,27.27,0,0,0-1.42,3.2q-.83,2.12-2,5.71T477,426.77q-1.65,5.58-2.7,9.27t-1.65,6.08q-.6,2.38-.82,3.73a14.12,14.12,0,0,0-.23,2.25,4.15,4.15,0,0,0,.82,2.93q.82.86,4.13.85Q481.38,451.88,482.88,449.63Z" transform="translate(-397.98 -311.2)"/><path class="cls-1" d="M508.23,462.5l20-68.13h16.5l-16.5,56.34h20.1l-3.45,11.79Z" transform="translate(-397.98 -311.2)"/><path class="cls-1" d="M554.58,462.5l20-68.13H591l-16.5,56.34h20.1l-3.45,11.79Z" transform="translate(-397.98 -311.2)"/><path class="cls-1" d="M600.93,462.5l20-68.13h38.4L656,405.62h-21.9l-5,16.74h21.45l-3.15,10.71H626l-5.1,17.64h21.75l-3.45,11.79Z" transform="translate(-397.98 -311.2)"/><path class="cls-1" d="M703.53,436.4a83.16,83.16,0,0,1-2.17,8.5,38.06,38.06,0,0,1-4.42,9.32,19.85,19.85,0,0,1-8,6.79q-5.33,2.65-15.52,2.65a75.25,75.25,0,0,1-8.92-.45,17.6,17.6,0,0,1-5.93-1.62,7,7,0,0,1-3.22-3.2,11.92,11.92,0,0,1-1-5.17,28.57,28.57,0,0,1,.3-3.83q.3-2.2,1-5.44t2-7.74q1.2-4.5,3-10.71,2.25-7.56,3.9-12.24a66.19,66.19,0,0,1,3.08-7.51,24.6,24.6,0,0,1,2.63-4.32,26.77,26.77,0,0,1,2.55-2.75,17.2,17.2,0,0,1,7.73-4.27,53.31,53.31,0,0,1,13-1.21,49.18,49.18,0,0,1,11.55,1,8.86,8.86,0,0,1,5.25,3.15,6.39,6.39,0,0,1,1.28,2.61,14.49,14.49,0,0,1,.38,3.42,38.77,38.77,0,0,1-1.8,10.44l-1.8,5.49h-15.9a61.62,61.62,0,0,0,2-6.3,23.58,23.58,0,0,0,.82-5.94,2.58,2.58,0,0,0-.9-2.21q-.9-.68-4-.68a11.89,11.89,0,0,0-3.9.5,5.66,5.66,0,0,0-2.4,1.75q-.6.9-1.2,2a30.09,30.09,0,0,0-1.43,3.29q-.83,2.16-1.95,5.8T676.68,427q-1.65,5.4-2.7,9t-1.65,6q-.6,2.43-.83,3.87a15.82,15.82,0,0,0-.23,2.34,3.44,3.44,0,0,0,1.05,2.88q1,.81,4.5.81,4.35,0,6-2.52a12.4,12.4,0,0,0,1-1.93q.45-1,1-2.52t1.2-3.55q.6-2.07,1.5-4.95Z" transform="translate(-397.98 -311.2)"/><path class="cls-1" d="M717.78,462.5l16.65-56.88H720l3.3-11.25h45.3l-3.3,11.25H751.08L734.43,462.5Z" transform="translate(-397.98 -311.2)"/><path class="cls-1" d="M758.58,462.5l19.95-68.13h17.1l-20,68.13Z" transform="translate(-397.98 -311.2)"/><path class="cls-1" d="M797.13,462.5l8.7-68.13h17.4q-2,11.43-3.37,19.62l-2.4,13.77q-1,5.58-1.58,9t-1,5.54q-.37,2.07-.6,3.15t-.37,2h1.2q.3-.9.75-2t1.27-3.15q.82-2.07,2.25-5.54t3.75-9q2.32-5.58,5.78-13.72t8.25-19.67H855l-31.8,68.13Z" transform="translate(-397.98 -311.2)"/><path class="cls-1" d="M845.28,462.5l20-68.13h38.4l-3.3,11.25h-21.9l-5,16.74h21.45l-3.15,10.71H870.33l-5.1,17.64H887l-3.45,11.79Z" transform="translate(-397.98 -311.2)"/><path class="cls-1" d="M458.43,333.52q.75-2.07,1.57-4.46a13.48,13.48,0,0,0,.83-4.36,2.12,2.12,0,0,0-1.2-2.21,12.33,12.33,0,0,0-4.2-.5,15,15,0,0,0-3.08.27,5.46,5.46,0,0,0-2.17.94,5.78,5.78,0,0,0-1.58,1.94,18,18,0,0,0-1.27,3.24,33.17,33.17,0,0,0-1.35,4.36,12.55,12.55,0,0,0-.3,2.39,2.1,2.1,0,0,0,.38,1.3,7.18,7.18,0,0,0,1.13,1.13,25.79,25.79,0,0,0,3.38,1.85q2,.94,4.27,1.8l4.42,1.71q2.17.86,3.68,1.58a19.5,19.5,0,0,1,3.9,2.75,5.48,5.48,0,0,1,1.35,4.09,27.92,27.92,0,0,1-.45,4.41,59.26,59.26,0,0,1-2.25,8.1,37.34,37.34,0,0,1-3.82,8.55,17.7,17.7,0,0,1-5.4,5.49,21.66,21.66,0,0,1-7.8,2.92,71.34,71.34,0,0,1-18.6.45,17.77,17.77,0,0,1-5.4-1.44,7.14,7.14,0,0,1-3.23-2.83,9,9,0,0,1-1-4.59,23.71,23.71,0,0,1,1.2-7.38,43.54,43.54,0,0,1,3.15-7.29h13.95a29.37,29.37,0,0,0-1.73,4.5,17.54,17.54,0,0,0-.82,5.13q0,2.07,1.27,2.56a11.15,11.15,0,0,0,3.83.5,19.64,19.64,0,0,0,3.45-.27A5.27,5.27,0,0,0,447,369a8.94,8.94,0,0,0,1.95-2.56,27.08,27.08,0,0,0,1.8-4.46q.9-2.7,1.13-3.78a8.9,8.9,0,0,0,.22-1.71,3.35,3.35,0,0,0-.37-1.71,5.4,5.4,0,0,0-1.27-1.35,14.46,14.46,0,0,0-3.52-2.16q-2.33-1.08-4.87-2.16t-5-2.16a21.8,21.8,0,0,1-4-2.16,8.56,8.56,0,0,1-2.48-2.39,6.69,6.69,0,0,1-.67-3.37,23.56,23.56,0,0,1,.52-4.45,61.2,61.2,0,0,1,1.88-6.8,33.56,33.56,0,0,1,3.52-8.05,16.06,16.06,0,0,1,5-5.08,20.21,20.21,0,0,1,7.28-2.66,60.46,60.46,0,0,1,10.42-.76q9.9,0,14,1.89a6.61,6.61,0,0,1,4,6.48,15.51,15.51,0,0,1-.37,3.2,36.59,36.59,0,0,1-1,3.6q-.6,1.85-1.35,3.69a32,32,0,0,1-1.65,3.46Z" transform="translate(-397.98 -311.2)"/><path class="cls-1" d="M471.63,380.5l20-68.13h25.8q8.25,0,11.85,2.34t3.6,8a28,28,0,0,1-.75,5.85q-.75,3.42-2.4,9.09a54.92,54.92,0,0,1-3.75,9.85,22.16,22.16,0,0,1-5.1,6.71,18.75,18.75,0,0,1-7.2,3.82,36.47,36.47,0,0,1-10,1.21h-9.3l-6.15,21.24Zm32-32.22a7.32,7.32,0,0,0,3.07-.58,7,7,0,0,0,2.4-1.94,14.89,14.89,0,0,0,2.1-3.6,59,59,0,0,0,2-5.58q1.2-4,1.65-6.12a17.8,17.8,0,0,0,.45-3.42q0-2.34-1.12-2.92a7.15,7.15,0,0,0-3.23-.59h-6.15l-7.2,24.75Z" transform="translate(-397.98 -311.2)"/><path class="cls-1" d="M528,380.5l20-68.13h38.4l-3.3,11.25h-21.9l-4.95,16.74h21.45l-3.15,10.71H553.08L548,368.71h21.75l-3.45,11.79Z" transform="translate(-397.98 -311.2)"/><path class="cls-1" d="M578.28,380.5l20-68.13h38.4l-3.3,11.25h-21.9l-4.95,16.74h21.45l-3.15,10.71H603.33l-5.1,17.64H620l-3.45,11.79Z" transform="translate(-397.98 -311.2)"/><path class="cls-1" d="M628.53,380.5l20-68.13h24.15q9.3,0,14,2.21t4.72,8.23a26.57,26.57,0,0,1-.3,3.65q-.3,2.12-1.05,5.17t-1.87,7.2q-1.12,4.14-2.78,9.63-2.1,7.11-3.6,11.61a69.74,69.74,0,0,1-2.85,7.38,23.81,23.81,0,0,1-2.7,4.59,30.77,30.77,0,0,1-2.85,3.15,15.57,15.57,0,0,1-7.65,4.19,58.46,58.46,0,0,1-13.05,1.13Zm27-11.7a13,13,0,0,0,3.9-.45,6.32,6.32,0,0,0,2.55-1.71,12.18,12.18,0,0,0,1.13-1.89q.52-1.08,1.35-3.15t1.95-5.62q1.13-3.55,2.78-9.31,1.35-4.86,2.32-8.24t1.58-5.62q.6-2.25.82-3.65a15.26,15.26,0,0,0,.22-2.38,2.78,2.78,0,0,0-1-2.34q-1.05-.81-4.2-.81h-7.2L648.33,368.8Z" transform="translate(-397.98 -311.2)"/><path class="cls-1" d="M731,380.5q1.35-10,2.33-17.1t1.58-12q.6-4.86,1-7.87t.67-4.81a27.35,27.35,0,0,1,.45-2.75q.23-.94.38-1.75h-1.2q-.3.81-.67,1.75t-1.12,2.75q-.75,1.8-2.1,4.81l-3.53,7.88q-2.18,4.86-5.47,12t-7.8,17.1h-23.7l11.4-68.13h16.5q-2.25,11.43-3.83,19.48t-2.7,13.54q-1.12,5.49-1.73,8.77t-1,5.22q-.38,1.94-.6,2.88c-.15.63-.28,1.22-.37,1.75h1.2q.3-.81.67-1.75t1.28-2.88q.9-1.93,2.47-5.22l4.2-8.77q2.62-5.49,6.45-13.54T735,312.37h16.5q-1.35,11.43-2.25,19.48t-1.5,13.54q-.6,5.49-1,8.77t-.67,5.22l-.45,2.88q-.15.94-.3,1.75h1.35q.3-.72.6-1.71t1-2.88q.75-1.89,2-5.22t3.45-8.82q2.17-5.49,5.33-13.54t7.65-19.48h16l-28.2,68.13Z" transform="translate(-397.98 -311.2)"/><path class="cls-1" d="M797,380.5l3-17.1h-10.5l-7,17.1h-16.8l30.45-68.13H824l-10,68.13Zm10-57h-1.2l-12.6,29.07h9.15Z" transform="translate(-397.98 -311.2)"/><path class="cls-1" d="M831.33,380.5l8.25-28-5.1-39.69.15-.45h16.8q.15,5.67.3,9.36T852,328q.15,2.56.15,4.46v4.05h1a15.27,15.27,0,0,1,1-2q.67-1.22,2.25-3.73t4.42-6.84q2.85-4.32,7.35-11.52H885l-.15.45-27.9,41-7.8,26.73Z" transform="translate(-397.98 -311.2)"/><g id="checkered"><polygon class="cls-1" points="522.92 97.55 501.42 97.55 498.01 108.95 519.51 108.95 522.92 97.55"/><polygon class="cls-1" points="530.97 70.6 509.47 70.6 506.06 82 527.56 82 530.97 70.6"/><polygon class="cls-1" points="515.34 125.38 493.84 125.38 490.43 136.78 511.93 136.78 515.34 125.38"/><polygon class="cls-1" points="542 111.3 520.5 111.3 517.09 123.22 538.59 123.22 542 111.3"/><polygon class="cls-1" points="548.84 83.05 527.34 83.05 523.92 94.3 545.42 94.3 548.84 83.05"/><polygon class="cls-1" points="534.84 139.55 513.34 139.55 509.93 151.47 531.42 151.47 534.84 139.55"/></g><g id="checkered-2" data-name="checkered"><polygon class="cls-1" points="519.37 29.42 497.87 29.42 494.45 41.34 515.95 41.34 519.37 29.42"/><polygon class="cls-1" points="526.2 1.17 504.7 1.17 501.28 12.42 522.78 12.42 526.2 1.17"/><polygon class="cls-1" points="512.2 57.67 490.7 57.67 487.29 69.59 508.79 69.59 512.2 57.67"/></g><g id="checkered-3" data-name="checkered"><polygon class="cls-1" points="544.7 15.67 523.2 15.67 519.78 27.07 541.28 27.07 544.7 15.67"/><polygon class="cls-1" points="537.11 43.5 515.61 43.5 512.2 54.9 533.7 54.9 537.11 43.5"/><polygon class="cls-1" points="563.78 29.42 542.28 29.42 538.87 41.34 560.37 41.34 563.78 29.42"/><polygon class="cls-1" points="570.61 1.17 549.11 1.17 545.7 12.42 567.2 12.42 570.61 1.17"/><polygon class="cls-1" points="556.61 57.67 535.11 57.67 531.7 69.59 553.2 69.59 556.61 57.67"/></g></g><line class="cls-2" x1="3.3" y1="125.02" x2="23.68" y2="59.63"/></svg>